<svg width="72" height="72" viewBox="0 0 72 72" fill="none" xmlns="http://www.w3.org/2000/svg">
<rect x="16" y="16" width="40" height="40" rx="20" fill="#FF0000"/>
<path d="M35.5215 36.6347L28.9915 43.1657C28.9915 43.1657 28.9915 43.1657 28.9915 43.1657C28.9375 43.2197 28.8643 43.25 28.788 43.25C28.7116 43.25 28.6384 43.2197 28.5844 43.1657C28.5304 43.1117 28.5001 43.0385 28.5001 42.9621C28.5001 42.8858 28.5304 42.8125 28.5844 42.7586C28.5844 42.7586 28.5844 42.7585 28.5844 42.7585L35.1153 36.2286L35.469 35.875L35.1153 35.5214L28.5844 28.9915C28.5844 28.9915 28.5844 28.9915 28.5844 28.9914C28.5304 28.9375 28.5001 28.8642 28.5001 28.7879C28.5001 28.7115 28.5304 28.6383 28.5844 28.5843C28.6384 28.5303 28.7116 28.5 28.788 28.5C28.8643 28.5 28.9375 28.5303 28.9915 28.5843C28.9915 28.5843 28.9915 28.5843 28.9915 28.5843L35.5215 35.1153L35.8751 35.4689L36.2286 35.1153L42.7586 28.5843C42.7586 28.5843 42.7586 28.5843 42.7586 28.5843C42.8126 28.5303 42.8858 28.5 42.9622 28.5C43.0385 28.5 43.1117 28.5303 43.1657 28.5843C43.2197 28.6383 43.2501 28.7115 43.2501 28.7879C43.2501 28.8642 43.2197 28.9375 43.1658 28.9914C43.1658 28.9914 43.1657 28.9915 43.1657 28.9915L36.6348 35.5214L36.2812 35.875L36.6348 36.2286L43.1657 42.7585C43.1657 42.7585 43.1658 42.7585 43.1658 42.7586C43.1925 42.7853 43.2137 42.817 43.2281 42.8519C43.2426 42.8869 43.2501 42.9243 43.2501 42.9621C43.2501 42.9999 43.2426 43.0373 43.2281 43.0723C43.2137 43.1072 43.1925 43.1389 43.1657 43.1657C43.139 43.1924 43.1073 43.2136 43.0723 43.2281C43.0374 43.2426 43 43.25 42.9622 43.25C42.9244 43.25 42.8869 43.2426 42.852 43.2281C42.8171 43.2136 42.7853 43.1924 42.7586 43.1657C42.7586 43.1657 42.7586 43.1657 42.7586 43.1657L36.2286 36.6347L35.8751 36.2811L35.5215 36.6347Z" fill="white" stroke="white"/>
<circle cx="36" cy="36" r="36" fill="#FF0000" fill-opacity="0.12"/>
</svg>
