<svg width="72" height="72" viewBox="0 0 72 72" fill="none" xmlns="http://www.w3.org/2000/svg">
<circle cx="36" cy="36" r="36" fill="#FFFF00" fill-opacity="0.28"/>
<rect x="16" y="16" width="40" height="40" rx="20" fill="#FFFF00"/>
<path d="M40.375 44.4062C40.375 46.3878 38.2722 48 35.6875 48C33.1028 48 31 46.3878 31 44.4062C31 42.4247 33.1028 40.8125 35.6875 40.8125C38.2722 40.8125 40.375 42.4247 40.375 44.4062ZM31.5426 26.132L32.3395 38.3507C32.3769 38.9245 32.9946 39.375 33.7439 39.375H37.6311C38.3804 39.375 38.9981 38.9245 39.0355 38.3507L39.8324 26.132C39.8726 25.5162 39.2322 25 38.4279 25H32.9471C32.1428 25 31.5024 25.5162 31.5426 26.132Z" fill="black"/>
</svg>
